<?xml version="1.0" standalone="no"?><!DOCTYPE svg PUBLIC "-//W3C//DTD SVG 1.1//EN" "http://www.w3.org/Graphics/SVG/1.1/DTD/svg11.dtd"><svg t="1732937314184" class="icon" viewBox="0 0 1024 1024" version="1.1" xmlns="http://www.w3.org/2000/svg" p-id="7927" xmlns:xlink="http://www.w3.org/1999/xlink" width="64" height="64"><path d="M522.601293 10.371799a85.231989 85.231989 0 0 0-81.497442 0L70.179056 215.049041c-24.093848 12.64927-40.357196 38.550157-40.056023 65.354564V692.709585c-0.180704 27.346518 16.865694 53.428109 41.561888 65.95691 35.538426 18.853436 70.052864 39.694615 106.193637 57.283124 41.802827 20.479771 94.026243 25.057602 136.310947 3.674312 34.333734-17.708979 49.633328-57.22289 49.512858-93.423897 0.301173-136.070009 0.120469-272.140017 0.12047-408.210026 0.843285-6.023462-3.734546-12.528801-10.300121-12.348097a2155.194736 2155.194736 0 0 0-47.404646 0c-6.023462-0.602346-11.805986 4.336893-11.384344 10.360355-0.180704 135.166489 0 270.393213-0.120469 405.619937a45.778312 45.778312 0 0 1-30.298014 42.947285c-41.622123 14.576778-160.46503-62.523537-160.46503-62.523537a11.685516 11.685516 0 0 1-6.686043-11.444578V282.511817a12.589036 12.589036 0 0 1 7.830501-12.649271l369.599633-203.713488a13.372086 13.372086 0 0 1 14.576779 0c123.1798 67.884418 246.3596 135.82907 369.659868 203.593019 5.059708 2.168446 8.191908 7.288389 7.830501 12.76974l-0.060235 408.029322a11.685516 11.685516 0 0 1-6.625808 11.565047c-122.095577 67.462775-245.576549 132.757104-366.587903 202.207622-5.240412 3.011731-11.203639 6.445104-17.166867 3.132201-31.80388-17.648744-63.246352-35.899834-94.929762-53.608813-3.493608-2.228681-7.830501-3.1322-11.444578-0.722816a428.448859 428.448859 0 0 1-43.971274 19.997895c-22.889156 9.095428-19.214844 12.829974 1.445631 24.816663 37.104526 21.021883 74.269288 41.923296 111.31358 62.945179 24.455256 15.239359 57.22289 16.263348 82.461196 2.228681l370.924795-204.556772c24.63596-12.528801 41.802827-38.550157 41.622123-65.836441V280.403605a74.570461 74.570461 0 0 0-38.730861-64.451044c-124.083319-68.667468-248.166638-137.033763-372.249957-205.580762z" fill="#8CC84B" p-id="7928"></path><path d="M709.208149 319.857282c-48.549104-25.900887-106.253871-27.286283-160.224092-23.913145-38.9718 3.855016-79.931342 14.637013-108.301848 42.585877-29.153557 28.069333-35.478192 73.426003-21.684464 110.048652 9.938712 25.900887 34.93608 42.766581 60.716498 51.681305 33.249511 11.745751 68.065122 15.359828 103.001202 18.973906 31.924349 3.312904 63.728229 6.625808 94.327416 16.082644 12.528801 4.156189 27.105579 10.480824 30.900361 24.093848 3.553843 16.082644-0.301173 34.815611-13.432321 46.01925-41.561888 32.888103-157.091891 27.828395-198.171902 1.927508-16.564521-11.022936-23.732441-30.538953-26.623703-49.15145-0.361408-5.782524-4.999474-11.08317-11.263874-10.661528a2382.339491 2382.339491 0 0 0-47.284177 0c-5.541585-0.481877-11.203639 3.433373-11.565048 9.035193-3.192435 85.231989 74.992103 122.336515 148.418106 130.528423 41.983531 4.03572 84.810346 3.794781 126.131296-5.180177 31.02083-7.107685 62.162129-20.118363 83.54542-44.031508 26.322529-29.093322 31.502707-72.281545 19.696721-108.542787-9.035193-26.98511-34.875846-44.332681-61.198375-53.247405-35.899834-12.287863-78.485711-18.913671-111.012406-22.045871-47.223943-4.517597-103.362609-2.590089-116.79493-33.731388-5.300647-16.263348-0.78305-36.381711 14.155136-46.380658 39.574146-26.804406 119.987365-23.310798 161.007141-3.252669 18.732967 9.396601 29.635433 28.731914 34.15303 48.308166 0.843285 5.722289 4.6983 11.685516 11.324109 11.444578 15.661001 0.301173 31.322003 0.060235 46.983004 0.060234 5.360881 0.421642 11.263874-2.650323 12.287863-8.131674-0.722815-40.778838-21.50376-82.521431-59.029929-102.45909z" fill="#8CC84B" p-id="7929"></path></svg>